<svg data-v-423bf9ae="" xmlns="http://www.w3.org/2000/svg" viewBox="0 0 646 90" class="iconLeft"><!----><!----><!----><g data-v-423bf9ae="" id="6686390b-2b58-44cb-8a78-469a4c6199fb" fill="white" transform="matrix(6.066733864221661,0,0,6.066733864221661,101.08393251453049,8.933266612615498)"><path d="M12.18 8.05L12.18 8.05L12.18 8.05Q12.18 8.59 12.04 9.00L12.04 9.00L12.04 9.00Q11.89 9.40 11.64 9.69L11.64 9.69L11.64 9.69Q11.38 9.98 11.02 10.16L11.02 10.16L11.02 10.16Q10.66 10.34 10.23 10.45L10.23 10.45L10.23 10.45Q9.80 10.55 9.30 10.60L9.30 10.60L9.30 10.60Q8.81 10.64 8.29 10.64L8.29 10.64L1.47 10.64L1.47 1.24L8.16 1.24L8.16 1.24Q8.57 1.24 8.97 1.28L8.97 1.28L8.97 1.28Q9.38 1.31 9.75 1.40L9.75 1.40L9.75 1.40Q10.12 1.50 10.44 1.66L10.44 1.66L10.44 1.66Q10.75 1.83 10.99 2.09L10.99 2.09L10.99 2.09Q11.22 2.36 11.36 2.73L11.36 2.73L11.36 2.73Q11.49 3.11 11.49 3.62L11.49 3.62L11.49 3.62Q11.49 4.54 11.04 5.08L11.04 5.08L11.04 5.08Q10.59 5.61 9.62 5.79L9.62 5.79L9.62 5.79Q10.30 5.84 10.79 6.00L10.79 6.00L10.79 6.00Q11.28 6.16 11.59 6.44L11.59 6.44L11.59 6.44Q11.89 6.71 12.04 7.11L12.04 7.11L12.04 7.11Q12.18 7.51 12.18 8.05ZM9.02 4.03L9.02 4.03L9.02 4.03Q9.02 3.85 8.96 3.69L8.96 3.69L8.96 3.69Q8.91 3.53 8.76 3.40L8.76 3.40L8.76 3.40Q8.62 3.28 8.37 3.21L8.37 3.21L8.37 3.21Q8.13 3.13 7.75 3.13L7.75 3.13L4.01 3.13L4.01 4.89L7.75 4.89L7.75 4.89Q8.13 4.89 8.37 4.83L8.37 4.83L8.37 4.83Q8.62 4.76 8.76 4.64L8.76 4.64L8.76 4.64Q8.91 4.53 8.96 4.36L8.96 4.36L8.96 4.36Q9.02 4.20 9.02 4.03ZM9.60 7.75L9.60 7.75L9.60 7.75Q9.60 7.43 9.50 7.24L9.50 7.24L9.50 7.24Q9.39 7.04 9.15 6.94L9.15 6.94L9.15 6.94Q8.92 6.83 8.55 6.79L8.55 6.79L8.55 6.79Q8.18 6.76 7.67 6.76L7.67 6.76L4.01 6.76L4.01 8.75L7.67 8.75L7.67 8.75Q8.18 8.75 8.55 8.72L8.55 8.72L8.55 8.72Q8.92 8.68 9.15 8.57L9.15 8.57L9.15 8.57Q9.39 8.46 9.50 8.27L9.50 8.27L9.50 8.27Q9.60 8.07 9.60 7.75ZM17.03 1.24L17.03 6.62L17.03 6.62Q17.03 7.21 17.14 7.58L17.14 7.58L17.14 7.58Q17.25 7.95 17.49 8.17L17.49 8.17L17.49 8.17Q17.74 8.39 18.13 8.47L18.13 8.47L18.13 8.47Q18.53 8.55 19.10 8.55L19.10 8.55L23.91 8.55L23.91 10.64L18.58 10.64L18.58 10.64Q17.47 10.64 16.70 10.46L16.70 10.46L16.70 10.46Q15.92 10.27 15.43 9.90L15.43 9.90L15.43 9.90Q14.94 9.52 14.71 8.93L14.71 8.93L14.71 8.93Q14.49 8.35 14.49 7.55L14.49 7.55L14.49 1.24L17.03 1.24ZM38.10 5.95L38.10 5.95L38.10 5.95Q38.10 7.16 37.65 8.08L37.65 8.08L37.65 8.08Q37.21 9.01 36.38 9.63L36.38 9.63L36.38 9.63Q35.55 10.25 34.37 10.57L34.37 10.57L34.37 10.57Q33.20 10.89 31.73 10.89L31.73 10.89L31.73 10.89Q30.26 10.89 29.07 10.57L29.07 10.57L29.07 10.57Q27.88 10.25 27.05 9.63L27.05 9.63L27.05 9.63Q26.22 9.01 25.76 8.08L25.76 8.08L25.76 8.08Q25.31 7.16 25.31 5.95L25.31 5.95L25.31 5.95Q25.31 4.74 25.76 3.81L25.76 3.81L25.76 3.81Q26.22 2.88 27.05 2.26L27.05 2.26L27.05 2.26Q27.88 1.64 29.07 1.32L29.07 1.32L29.07 1.32Q30.26 1.00 31.73 1.00L31.73 1.00L31.73 1.00Q33.20 1.00 34.37 1.32L34.37 1.32L34.37 1.32Q35.55 1.64 36.38 2.26L36.38 2.26L36.38 2.26Q37.21 2.88 37.65 3.81L37.65 3.81L37.65 3.81Q38.10 4.74 38.10 5.95ZM35.53 5.95L35.53 5.95L35.53 5.95Q35.53 5.42 35.37 4.90L35.37 4.90L35.37 4.90Q35.20 4.38 34.77 3.96L34.77 3.96L34.77 3.96Q34.34 3.54 33.61 3.28L33.61 3.28L33.61 3.28Q32.87 3.02 31.73 3.02L31.73 3.02L31.73 3.02Q30.96 3.02 30.38 3.14L30.38 3.14L30.38 3.14Q29.80 3.26 29.37 3.47L29.37 3.47L29.37 3.47Q28.95 3.68 28.66 3.97L28.66 3.97L28.66 3.97Q28.38 4.25 28.21 4.58L28.21 4.58L28.21 4.58Q28.03 4.90 27.96 5.25L27.96 5.25L27.96 5.25Q27.89 5.61 27.89 5.95L27.89 5.95L27.89 5.95Q27.89 6.30 27.96 6.65L27.96 6.65L27.96 6.65Q28.03 7.01 28.21 7.33L28.21 7.33L28.21 7.33Q28.38 7.66 28.66 7.94L28.66 7.94L28.66 7.94Q28.95 8.22 29.37 8.43L29.37 8.43L29.37 8.43Q29.80 8.63 30.38 8.75L30.38 8.75L30.38 8.75Q30.96 8.87 31.73 8.87L31.73 8.87L31.73 8.87Q32.87 8.87 33.61 8.61L33.61 8.61L33.61 8.61Q34.34 8.35 34.77 7.94L34.77 7.94L34.77 7.94Q35.20 7.52 35.37 7.00L35.37 7.00L35.37 7.00Q35.53 6.47 35.53 5.95ZM46.46 1.00L46.46 1.00L46.46 1.00Q47.84 1.00 49.02 1.24L49.02 1.24L49.02 1.24Q50.21 1.48 51.20 1.85L51.20 1.85L51.20 4.14L51.20 4.14Q50.81 3.92 50.32 3.72L50.32 3.72L50.32 3.72Q49.83 3.51 49.26 3.36L49.26 3.36L49.26 3.36Q48.69 3.20 48.03 3.10L48.03 3.10L48.03 3.10Q47.37 3.01 46.65 3.01L46.65 3.01L46.65 3.01Q45.75 3.01 45.08 3.14L45.08 3.14L45.08 3.14Q44.41 3.27 43.93 3.49L43.93 3.49L43.93 3.49Q43.45 3.71 43.14 4.00L43.14 4.00L43.14 4.00Q42.83 4.29 42.66 4.61L42.66 4.61L42.66 4.61Q42.48 4.94 42.41 5.28L42.41 5.28L42.41 5.28Q42.34 5.63 42.34 5.95L42.34 5.95L42.34 5.95Q42.34 6.23 42.40 6.56L42.40 6.56L42.40 6.56Q42.46 6.88 42.62 7.21L42.62 7.21L42.62 7.21Q42.78 7.54 43.07 7.84L43.07 7.84L43.07 7.84Q43.35 8.14 43.81 8.37L43.81 8.37L43.81 8.37Q44.28 8.61 44.93 8.75L44.93 8.75L44.93 8.75Q45.58 8.89 46.47 8.89L46.47 8.89L46.47 8.89Q46.92 8.89 47.26 8.86L47.26 8.86L47.26 8.86Q47.59 8.83 47.87 8.78L47.87 8.78L47.87 8.78Q48.15 8.74 48.39 8.67L48.39 8.67L48.39 8.67Q48.63 8.60 48.89 8.52L48.89 8.52L48.89 7.39L46.05 7.39L46.05 5.33L51.43 5.33L51.43 10.13L51.43 10.13Q50.92 10.30 50.30 10.44L50.30 10.44L50.30 10.44Q49.67 10.58 49.00 10.68L49.00 10.68L49.00 10.68Q48.34 10.78 47.67 10.83L47.67 10.83L47.67 10.83Q47.00 10.89 46.40 10.89L46.40 10.89L46.40 10.89Q45.48 10.89 44.63 10.77L44.63 10.77L44.63 10.77Q43.78 10.64 43.05 10.39L43.05 10.39L43.05 10.39Q42.31 10.13 41.71 9.73L41.71 9.73L41.71 9.73Q41.10 9.34 40.68 8.79L40.68 8.79L40.68 8.79Q40.25 8.24 40.01 7.54L40.01 7.54L40.01 7.54Q39.78 6.83 39.78 5.95L39.78 5.95L39.78 5.95Q39.78 5.07 40.02 4.36L40.02 4.36L40.02 4.36Q40.27 3.65 40.71 3.10L40.71 3.10L40.71 3.10Q41.15 2.56 41.77 2.16L41.77 2.16L41.77 2.16Q42.39 1.76 43.13 1.51L43.13 1.51L43.13 1.51Q43.87 1.25 44.72 1.13L44.72 1.13L44.72 1.13Q45.56 1.00 46.46 1.00ZM63.55 10.64L54.15 10.64L54.15 1.24L56.69 1.24L56.69 8.58L63.55 8.58L63.55 10.64ZM76.08 10.64L73.54 10.64L73.54 9.71L73.54 9.71Q73.06 9.98 72.50 10.19L72.50 10.19L72.50 10.19Q71.94 10.39 71.34 10.53L71.34 10.53L71.34 10.53Q70.74 10.68 70.10 10.75L70.10 10.75L70.10 10.75Q69.46 10.82 68.81 10.82L68.81 10.82L68.81 10.82Q68.05 10.82 67.34 10.68L67.34 10.68L67.34 10.68Q66.64 10.53 66.09 10.21L66.09 10.21L66.09 10.21Q65.54 9.89 65.21 9.37L65.21 9.37L65.21 9.37Q64.88 8.85 64.88 8.10L64.88 8.10L64.88 8.10Q64.88 7.15 65.40 6.52L65.40 6.52L65.40 6.52Q65.92 5.89 66.99 5.48L66.99 5.48L66.99 5.48Q68.05 5.08 69.68 4.86L69.68 4.86L69.68 4.86Q71.31 4.64 73.54 4.52L73.54 4.52L73.54 4.32L73.54 4.32Q73.54 4.09 73.42 3.86L73.42 3.86L73.42 3.86Q73.29 3.63 72.97 3.46L72.97 3.46L72.97 3.46Q72.65 3.28 72.08 3.17L72.08 3.17L72.08 3.17Q71.52 3.06 70.64 3.06L70.64 3.06L70.64 3.06Q69.95 3.06 69.28 3.13L69.28 3.13L69.28 3.13Q68.61 3.21 67.98 3.33L67.98 3.33L67.98 3.33Q67.35 3.45 66.79 3.62L66.79 3.62L66.79 3.62Q66.23 3.78 65.78 3.96L65.78 3.96L65.78 1.70L65.78 1.70Q66.25 1.58 66.85 1.46L66.85 1.46L66.85 1.46Q67.44 1.35 68.09 1.26L68.09 1.26L68.09 1.26Q68.73 1.18 69.38 1.12L69.38 1.12L69.38 1.12Q70.04 1.07 70.64 1.07L70.64 1.07L70.64 1.07Q71.83 1.07 72.82 1.27L72.82 1.27L72.82 1.27Q73.82 1.46 74.54 1.87L74.54 1.87L74.54 1.87Q75.26 2.28 75.67 2.91L75.67 2.91L75.67 2.91Q76.08 3.54 76.08 4.41L76.08 4.41L76.08 10.64ZM73.54 7.59L73.54 6.35L73.54 6.35Q72.08 6.41 71.06 6.51L71.06 6.51L71.06 6.51Q70.03 6.61 69.36 6.75L69.36 6.75L69.36 6.75Q68.68 6.88 68.29 7.04L68.29 7.04L68.29 7.04Q67.91 7.20 67.72 7.36L67.72 7.36L67.72 7.36Q67.53 7.53 67.48 7.69L67.48 7.69L67.48 7.69Q67.44 7.85 67.44 7.99L67.44 7.99L67.44 7.99Q67.44 8.16 67.53 8.31L67.53 8.31L67.53 8.31Q67.61 8.46 67.84 8.58L67.84 8.58L67.84 8.58Q68.06 8.70 68.43 8.76L68.43 8.76L68.43 8.76Q68.80 8.83 69.36 8.83L69.36 8.83L69.36 8.83Q69.98 8.83 70.57 8.74L70.57 8.74L70.57 8.74Q71.17 8.64 71.70 8.47L71.70 8.47L71.70 8.47Q72.24 8.31 72.70 8.08L72.70 8.08L72.70 8.08Q73.17 7.85 73.54 7.59L73.54 7.59ZM89.69 8.05L89.69 8.05L89.69 8.05Q89.69 8.59 89.54 9.00L89.54 9.00L89.54 9.00Q89.40 9.40 89.14 9.69L89.14 9.69L89.14 9.69Q88.89 9.98 88.53 10.16L88.53 10.16L88.53 10.16Q88.17 10.34 87.74 10.45L87.74 10.45L87.74 10.45Q87.30 10.55 86.81 10.60L86.81 10.60L86.81 10.60Q86.32 10.64 85.79 10.64L85.79 10.64L78.98 10.64L78.98 1.24L85.67 1.24L85.67 1.24Q86.07 1.24 86.48 1.28L86.48 1.28L86.48 1.28Q86.88 1.31 87.25 1.40L87.25 1.40L87.25 1.40Q87.62 1.50 87.94 1.66L87.94 1.66L87.94 1.66Q88.26 1.83 88.49 2.09L88.49 2.09L88.49 2.09Q88.73 2.36 88.86 2.73L88.86 2.73L88.86 2.73Q89.00 3.11 89.00 3.62L89.00 3.62L89.00 3.62Q89.00 4.54 88.55 5.08L88.55 5.08L88.55 5.08Q88.09 5.61 87.12 5.79L87.12 5.79L87.12 5.79Q87.81 5.84 88.30 6.00L88.30 6.00L88.30 6.00Q88.79 6.16 89.09 6.44L89.09 6.44L89.09 6.44Q89.40 6.71 89.54 7.11L89.54 7.11L89.54 7.11Q89.69 7.51 89.69 8.05ZM86.52 4.03L86.52 4.03L86.52 4.03Q86.52 3.85 86.47 3.69L86.47 3.69L86.47 3.69Q86.41 3.53 86.27 3.40L86.27 3.40L86.27 3.40Q86.13 3.28 85.88 3.21L85.88 3.21L85.88 3.21Q85.63 3.13 85.25 3.13L85.25 3.13L81.51 3.13L81.51 4.89L85.25 4.89L85.25 4.89Q85.63 4.89 85.88 4.83L85.88 4.83L85.88 4.83Q86.13 4.76 86.27 4.64L86.27 4.64L86.27 4.64Q86.41 4.53 86.47 4.36L86.47 4.36L86.47 4.36Q86.52 4.20 86.52 4.03ZM87.11 7.75L87.11 7.75L87.11 7.75Q87.11 7.43 87.00 7.24L87.00 7.24L87.00 7.24Q86.89 7.04 86.66 6.94L86.66 6.94L86.66 6.94Q86.43 6.83 86.06 6.79L86.06 6.79L86.06 6.79Q85.69 6.76 85.18 6.76L85.18 6.76L81.51 6.76L81.51 8.75L85.18 8.75L85.18 8.75Q85.69 8.75 86.06 8.72L86.06 8.72L86.06 8.72Q86.43 8.68 86.66 8.57L86.66 8.57L86.66 8.57Q86.89 8.46 87.00 8.27L87.00 8.27L87.00 8.27Q87.11 8.07 87.11 7.75Z"></path></g><!----><g data-v-423bf9ae="" id="7557bab1-7c52-49ef-8de7-96e9ac3da96b" transform="matrix(1.00887061889077,0,0,1.00887061889077,-4.044381187598958,-5.053142466564395)" stroke="none" fill="white"><path clip-rule="evenodd" d="M57.682 69.346l-.166-24.938 24.5-24.388c16.424 17.447 16.107 45.078-.956 62.14-17.386 17.386-45.745 17.386-63.131 0-17.386-17.386-17.386-45.745 0-63.131 17.114-17.113 44.862-17.381 62.348-.798l-24.32 24.362-24.988.097 26.713 26.656zm11.923.79l-.174-20.643 11.153-11.169c4.683 12.001 2.213 26.247-7.45 35.91-13.02 13.02-34.258 13.02-47.278 0-13.02-13.02-13.02-34.258 0-47.278 9.765-9.765 24.153-12.206 36.406-7.51L50.818 30.88l-19.795-.44c-3.369-.075-6.797.927-9.341 3.506-4.652 4.717-4.705 12.346-.01 17.04L49.095 78.41c4.681 4.681 12.343 4.661 17.027-.023 2.342-2.342 3.507-5.424 3.483-8.251z"></path></g><!----></svg>