<svg data-v-423bf9ae="" xmlns="http://www.w3.org/2000/svg" viewBox="0 0 646 90" class="iconLeft"><!----><!----><!----><g data-v-423bf9ae="" id="6686390b-2b58-44cb-8a78-469a4c6199fb" fill="white" transform="matrix(6.066733864221661,0,0,6.066733864221661,101.08393251453049,8.933266612615498)"></path></g><!----><g data-v-423bf9ae="" id="7557bab1-7c52-49ef-8de7-96e9ac3da96b" transform="matrix(1.00887061889077,0,0,1.00887061889077,-4.044381187598958,-5.053142466564395)" stroke="none" fill="white"><path clip-rule="evenodd" d="M57.682 69.346l-.166-24.938 24.5-24.388c16.424 17.447 16.107 45.078-.956 62.14-17.386 17.386-45.745 17.386-63.131 0-17.386-17.386-17.386-45.745 0-63.131 17.114-17.113 44.862-17.381 62.348-.798l-24.32 24.362-24.988.097 26.713 26.656zm11.923.79l-.174-20.643 11.153-11.169c4.683 12.001 2.213 26.247-7.45 35.91-13.02 13.02-34.258 13.02-47.278 0-13.02-13.02-13.02-34.258 0-47.278 9.765-9.765 24.153-12.206 36.406-7.51L50.818 30.88l-19.795-.44c-3.369-.075-6.797.927-9.341 3.506-4.652 4.717-4.705 12.346-.01 17.04L49.095 78.41c4.681 4.681 12.343 4.661 17.027-.023 2.342-2.342 3.507-5.424 3.483-8.251z"></path></g><!----></svg>